<svg xmlns="http://www.w3.org/2000/svg" xmlns:xlink="http://www.w3.org/1999/xlink" version="1.1" x="0px" y="0px" viewBox="0 0 100 125" enable-background="new 0 0 100 100" xml:space="preserve"><path fill="none" stroke="#000000" stroke-width="2.9258" stroke-linecap="round" stroke-linejoin="round" stroke-miterlimit="10" d="  M28.32,90.374"/><circle cx="45.3" cy="47.759" r="2.138"/><circle cx="33.879" cy="47.759" r="2.138"/><path d="M71.623,7.28c-3.202,0-5.809,2.577-5.866,5.765C52.418,16.868,42.438,24.74,36.236,30.949  c-1.237-0.139-2.474-0.22-3.695-0.22c-0.46,0-0.895,0.217-1.17,0.585c-0.131,0.174-2.993,4.055-2.42,8.027  C24.876,44.274,18.512,53.84,18.233,54.26c-0.298,0.449-0.325,1.025-0.07,1.502c0.254,0.475,0.75,0.77,1.289,0.77h7.157  c1.62,3.441,4.343,6.115,7.648,7.689c-0.017,0.025-0.031,0.053-0.048,0.078l-7.473,10.538c-0.467,0.659-0.312,1.572,0.347,2.04  c0.257,0.182,0.552,0.27,0.845,0.27c0.458,0,0.91-0.215,1.195-0.615l3.165-4.463v4.839c-0.096,0.712,0.19,1.165,0.455,1.427  c1.306,1.275,3.39,2.163,5.756,2.723v8.657c0,0.808,0.655,1.464,1.463,1.464s1.463-0.656,1.463-1.464v-8.142  c1.315,0.16,2.653,0.238,3.946,0.238c0.564,0,1.12-0.015,1.661-0.043c0.389-0.021,0.825-0.052,1.288-0.097v8.042  c0,0.809,0.655,1.463,1.463,1.463c0.808,0,1.463-0.654,1.463-1.463v-8.494c2.229-0.49,4.523-1.38,5.867-3  c0.291-0.355,0.408-0.787,0.349-1.3v-5.446l4.399,5.522c0.289,0.362,0.716,0.552,1.146,0.552c0.319,0,0.643-0.104,0.91-0.318  c0.633-0.504,0.736-1.424,0.232-2.056l-8.52-10.692c-0.785-1.303-1.791-2.473-3.004-3.424c1.507-1.506,2.734-3.313,3.564-5.357  c1.756-0.45,3.57-1.529,5.092-3.051c2.96-2.959,5.66-11.335,5.96-12.281c0.164-0.52,0.024-1.089-0.361-1.475  c-0.386-0.386-0.957-0.525-1.475-0.36c-0.206,0.065-3.528,1.124-6.782,2.601l11.658-22.268c0.431,0.101,0.878,0.16,1.34,0.16  c3.238,0,5.872-2.634,5.872-5.872C77.495,9.915,74.861,7.28,71.623,7.28z M33.317,33.666c9.022,0.263,19.119,4.964,22.44,6.636  l-1.378,2.631c-3.818-1.389-15.498-5.359-22.571-4.766C31.833,36.374,32.763,34.571,33.317,33.666z M52.195,64.704  c0.053,0.165,0.131,0.323,0.244,0.467l0.836,1.05c0.81,1.43,1.26,3.063,1.26,4.75v5.713c-1.311,1.164-4.167,1.979-7.656,2.162  c-4.744,0.26-9.576-0.703-11.665-2.244v-5.631c0-1.806,0.493-3.521,1.42-5.031l0.306-0.433c0.041-0.058,0.07-0.118,0.102-0.18  c0.018-0.024,0.036-0.05,0.054-0.074c1.326,0.347,2.708,0.538,4.129,0.538c3.313,0,6.451-1.016,9.068-2.794  C51.008,63.482,51.645,64.059,52.195,64.704z M59.215,50.579c-1.316,1.315-2.924,2.209-4.3,2.394  c-0.548,0.072-1.009,0.448-1.188,0.973c-1.844,5.336-6.867,8.921-12.5,8.921c-2.126,0-4.154-0.503-5.96-1.41  c0.021,0,0.042,0.001,0.063,0.001c4.881,0,9.385-0.859,10.742-5.398c0.231-0.773-0.209-1.588-0.983-1.82  c-0.774-0.233-1.589,0.209-1.821,0.982c-1.019,3.407-5.59,3.502-11.965,3.17c-0.984-1.119-1.797-2.414-2.374-3.861  c-0.222-0.557-0.76-0.922-1.359-0.922h-5.366c2.19-3.218,6.254-9.082,9.051-12.458c0.045-0.002,0.09,0.001,0.135-0.006  c7.41-1.064,23.003,4.916,23.16,4.977c0.004,0.001,0.008,0.001,0.012,0.002c0.153,0.058,0.315,0.085,0.479,0.09  c0.013,0,0.024,0.007,0.037,0.007c0.008,0,0.016-0.003,0.024-0.003c0.114-0.001,0.229-0.017,0.342-0.046  c0.027-0.007,0.054-0.019,0.08-0.027c0.084-0.027,0.168-0.062,0.248-0.106c0.033-0.018,0.064-0.036,0.098-0.056  c0.023-0.016,0.049-0.025,0.072-0.042c1.904-1.393,5.176-2.752,7.529-3.63C62.375,45.234,60.712,49.082,59.215,50.579z   M57.117,37.705c-2.719-1.383-9.704-4.673-17.271-6.188c5.982-5.656,14.955-12.261,26.587-15.625  c0.322,0.609,0.752,1.151,1.26,1.609L57.117,37.705z M71.623,16.098c-1.625,0-2.945-1.322-2.945-2.946s1.32-2.946,2.945-2.946  s2.945,1.322,2.945,2.946S73.248,16.098,71.623,16.098z"/><text x="0" y="115" fill="#000000" font-size="5px" font-weight="bold" font-family="'Helvetica Neue', Helvetica, Arial-Unicode, Arial, Sans-serif">Created by Gregsuj</text><text x="0" y="120" fill="#000000" font-size="5px" font-weight="bold" font-family="'Helvetica Neue', Helvetica, Arial-Unicode, Arial, Sans-serif">from the Noun Project</text></svg>